<svg xmlns="http://www.w3.org/2000/svg" viewBox="0 0 268 82"><defs><style>.cls-1{opacity:0.5;}.cls-2{font-size:36px;}.cls-2,.cls-3,.cls-4{fill:#fff;}.cls-2,.cls-4{font-family:Arial-BoldMT, Arial;font-weight:700;}.cls-4{font-size:12px;}</style></defs><title>Asset 6</title><g id="Layer_2" data-name="Layer 2"><g id="Layer_1-2" data-name="Layer 1"><rect class="cls-1" width="268" height="82"/><text class="cls-2" transform="translate(13.34 32.78)">Cycling Berlin</text><polygon class="cls-3" points="117.24 52.48 114.03 52.21 111.98 54.7 111.25 51.56 108.24 50.39 111 48.72 111.19 45.5 113.63 47.6 116.75 46.79 115.5 49.76 117.24 52.48"/><polygon class="cls-3" points="133.11 52.48 129.9 52.21 127.86 54.7 127.12 51.56 124.12 50.39 126.87 48.72 127.06 45.5 129.5 47.6 132.62 46.79 131.37 49.76 133.11 52.48"/><polygon class="cls-3" points="148.06 52.48 144.84 52.21 142.8 54.7 142.06 51.56 139.06 50.39 141.81 48.72 142 45.5 144.44 47.6 147.56 46.79 146.31 49.76 148.06 52.48"/><text class="cls-4" transform="translate(22.85 71.29)">The ultimate way to experience the city</text></g></g></svg>